<?xml version="1.0" standalone="no"?>
<!DOCTYPE svg PUBLIC "-//W3C//DTD SVG 20010904//EN"
 "http://www.w3.org/TR/2001/REC-SVG-20010904/DTD/svg10.dtd">
<svg version="1.0" xmlns="http://www.w3.org/2000/svg"
 width="135.000000pt" height="85.000000pt" viewBox="0 0 135.000000 85.000000"
 preserveAspectRatio="xMidYMid meet">

<g transform="translate(0.000000,85.000000) scale(0.100000,-0.100000)"
fill="#000000" stroke="none">
<path d="M569 698 c21 -29 48 -72 59 -94 33 -65 123 -129 108 -76 -2 9 -12 43
-20 74 -25 90 -88 148 -161 148 l-26 0 40 -52z"/>
<path d="M757 667 c1 -34 2 -72 3 -85 0 -13 12 -35 27 -50 l26 -26 15 58 c22
89 4 142 -53 160 -19 5 -20 2 -18 -57z"/>
<path d="M373 673 c-34 -6 -28 -16 22 -36 29 -12 62 -39 95 -77 54 -62 117
-100 166 -100 46 0 57 14 23 29 -16 7 -54 43 -84 80 -78 96 -131 121 -222 104z"/>
<path d="M801 465 c-53 -26 -88 -35 -127 -36 -64 -2 -60 -14 12 -50 56 -27 92
-21 194 32 41 22 90 40 108 42 42 3 41 14 -3 33 -55 23 -104 17 -184 -21z"/>
<path d="M385 253 c0 -59 4 -88 13 -91 9 -3 12 20 12 87 0 66 -3 91 -12 91
-10 0 -13 -24 -13 -87z"/>
<path d="M246 250 c-39 -86 -40 -90 -27 -90 5 0 14 14 20 30 8 24 16 30 39 30
23 0 32 -6 41 -28 10 -24 41 -41 41 -23 0 15 -63 161 -70 161 -4 0 -24 -36
-44 -80z m44 21 c0 -5 3 -16 6 -25 4 -12 0 -16 -16 -16 -16 0 -20 4 -16 16 3
9 6 20 6 25 0 5 5 9 10 9 6 0 10 -4 10 -9z"/>
<path d="M518 250 c-2 -54 1 -81 9 -84 19 -8 23 5 23 86 0 61 -3 78 -14 78
-11 0 -15 -19 -18 -80z"/>
<path d="M828 283 l-28 -4 0 -90 c0 -72 3 -89 15 -89 11 0 15 11 15 35 0 23 5
35 13 34 38 -5 55 3 67 30 9 22 9 35 1 50 -10 18 -44 44 -53 40 -2 -1 -15 -4
-30 -6z m52 -37 c13 -36 2 -68 -24 -64 -35 5 -36 88 -1 88 8 0 20 -11 25 -24z"/>
<path d="M968 276 c-60 -30 -18 -128 48 -112 34 9 30 21 -8 21 -23 0 -34 5
-36 18 -3 14 4 17 32 17 40 0 51 12 37 39 -13 24 -43 32 -73 17z m47 -26 c0
-9 -7 -14 -20 -12 -26 5 -29 8 -20 22 10 16 40 8 40 -10z"/>
<path d="M590 224 c0 -41 4 -54 15 -54 11 0 15 12 15 45 0 38 3 45 20 45 17 0
20 -7 20 -45 0 -33 4 -45 15 -45 11 0 15 11 15 39 0 43 19 68 38 49 7 -7 12
-29 12 -50 0 -26 4 -38 14 -38 11 0 13 10 9 43 -7 67 -5 65 -92 65 l-81 -1 0
-53z"/>
<path d="M1070 273 c0 -3 8 -15 17 -25 16 -18 16 -21 1 -49 -10 -16 -13 -29
-8 -29 5 0 13 8 19 17 9 17 10 17 28 0 32 -29 47 -20 23 14 -21 29 -21 31 -4
50 9 10 14 22 11 26 -4 4 -14 -2 -22 -13 -14 -18 -16 -18 -26 -1 -10 16 -39
24 -39 10z"/>
</g>
</svg>
