<?xml version="1.0" standalone="no"?>
<!DOCTYPE svg PUBLIC "-//W3C//DTD SVG 20010904//EN"
 "http://www.w3.org/TR/2001/REC-SVG-20010904/DTD/svg10.dtd">
<svg version="1.0" xmlns="http://www.w3.org/2000/svg"
 width="612.000000pt" height="612.000000pt" viewBox="0 0 612.000000 612.000000"
 preserveAspectRatio="xMidYMid meet">
<metadata>
Created by potrace 1.16, written by Peter Selinger 2001-2019
</metadata>
<g transform="translate(0.000000,612.000000) scale(0.100000,-0.100000)"
fill="#000000" stroke="none">
<path d="M1596 5608 c-3 -35 -10 -245 -16 -468 -16 -633 -39 -1382 -45 -1527
-6 -132 -6 -133 16 -133 15 0 19 4 12 13 -5 6 -9 34 -8 62 l0 49 50 -3 c28 -1
79 -6 115 -11 36 -5 101 -12 145 -15 44 -4 109 -11 145 -16 36 -6 90 -10 120
-10 30 0 51 -2 45 -4 -5 -3 -110 -25 -233 -50 l-222 -44 -158 15 c-86 8 -161
19 -166 24 -6 6 -23 10 -38 10 l-28 0 0 156 0 156 34 -3 c50 -5 54 7 5 15
l-41 7 6 52 c3 28 8 153 12 276 l7 223 32 -5 c17 -3 38 -1 46 4 9 6 -2 9 -35
9 l-48 0 6 88 c3 48 8 172 12 275 l6 189 37 -6 c26 -5 32 -4 21 3 -8 6 -25 11
-38 11 l-23 0 5 128 c3 70 8 217 11 327 3 110 8 210 12 223 8 32 -4 27 -23
-10 -9 -18 -20 -35 -24 -38 -4 -3 -9 -40 -12 -82 -3 -69 -2 -75 12 -63 14 12
15 9 12 -28 -2 -23 -9 -46 -16 -52 -10 -7 -16 -104 -25 -365 -6 -195 -14 -421
-18 -503 -5 -139 -4 -147 13 -140 14 5 16 3 11 -11 -4 -10 -7 -20 -7 -22 0 -2
-6 -4 -12 -4 -10 0 -14 -48 -18 -193 -8 -321 -7 -372 9 -369 9 2 11 -3 7 -13
-3 -9 -6 -30 -6 -46 0 -18 -5 -29 -14 -29 -11 0 -14 -17 -13 -80 2 -60 -1 -81
-12 -85 -8 -3 -15 -4 -15 -3 -1 2 2 84 6 183 4 99 5 191 2 204 l-5 24 -25 -24
-26 -24 4 23 c1 12 8 23 13 23 14 1 45 67 50 109 2 19 7 133 10 253 3 119 7
261 10 315 3 53 10 243 16 421 9 266 8 325 -3 332 -7 5 -8 9 -3 9 6 0 12 17
13 38 1 20 5 60 8 87 7 58 5 57 -43 -21 -29 -47 -38 -72 -42 -126 -5 -51 -3
-68 6 -68 18 0 17 -67 -1 -77 -10 -6 -16 -76 -25 -323 -6 -173 -14 -389 -17
-479 -5 -120 -4 -162 5 -157 6 4 11 1 11 -9 0 -8 -6 -18 -13 -20 -9 -4 -13
-44 -15 -143 -1 -75 -5 -165 -8 -198 -4 -41 -2 -64 5 -68 6 -4 9 -12 5 -17 -7
-12 16 -8 32 6 6 5 9 16 7 22 -3 7 -1 13 5 13 26 0 16 -29 -24 -70 -33 -35
-42 -50 -38 -67 4 -13 10 -20 15 -17 15 9 10 -66 -5 -82 -10 -9 -15 -34 -14
-73 0 -32 -2 -63 -6 -70 -16 -25 -21 -7 -18 61 4 62 3 69 -10 57 -10 -9 -16
-37 -17 -84 -1 -38 -6 -74 -12 -79 -5 -6 -9 -8 -9 -5 -1 2 -1 59 -1 126 -1
123 -6 139 -36 103 -8 -10 -12 -11 -13 -3 0 7 9 20 19 30 32 31 40 88 51 388
19 520 38 1049 39 1095 0 25 3 65 6 90 l6 45 -32 -55 c-18 -30 -36 -56 -40
-58 -5 -2 -9 -33 -9 -68 0 -41 4 -63 10 -59 6 4 10 -8 10 -29 0 -19 -4 -37 -9
-41 -15 -9 -20 -69 -31 -415 -6 -179 -13 -357 -16 -397 -5 -63 -3 -72 12 -75
16 -3 16 -4 2 -19 -12 -12 -18 -49 -23 -160 l-7 -144 25 24 c15 13 24 28 21
32 -3 5 0 9 5 9 21 0 10 -35 -19 -64 -20 -20 -28 -36 -24 -48 3 -10 0 -18 -6
-18 -11 0 -8 -84 6 -164 4 -23 2 -41 -4 -45 -6 -3 -12 -37 -14 -74 -2 -41 -7
-67 -14 -67 -8 0 -10 26 -8 83 2 45 6 147 9 227 3 80 9 251 15 380 5 129 12
296 15 370 3 74 7 180 10 235 9 180 14 470 9 458 -3 -7 -21 -13 -39 -13 -19 0
-36 -4 -39 -8 -5 -8 -12 -132 -21 -372 -3 -69 -8 -167 -11 -217 -6 -88 -5 -93
14 -93 11 0 23 5 25 10 3 6 4 5 3 -2 -1 -7 -12 -14 -24 -16 -17 -3 -22 -10
-22 -35 -1 -18 -5 -115 -10 -217 -5 -102 -7 -186 -5 -188 2 -2 13 1 24 8 14 7
21 7 21 1 0 -6 -11 -13 -24 -17 -24 -6 -24 -8 -31 -170 -4 -91 -5 -168 -1
-171 3 -4 6 21 6 54 0 81 12 215 18 208 3 -3 5 -30 3 -59 -1 -30 2 -57 7 -60
5 -3 7 15 4 43 -2 30 0 51 7 55 13 8 14 -41 4 -186 l-6 -98 -29 0 c-25 0 -28
-4 -28 -31 0 -30 1 -31 33 -25 23 4 28 3 17 -4 -8 -5 -23 -10 -32 -10 -15 0
-18 -10 -18 -69 0 -37 -3 -96 -6 -130 l-7 -61 31 0 c17 0 33 -4 36 -8 2 -4 22
-9 42 -10 21 -2 39 -4 40 -5 3 -2 -6 -248 -42 -1127 -32 -792 -36 -982 -26
-998 6 -9 35 -15 83 -16 41 -2 214 -29 384 -59 171 -31 433 -79 584 -106 164
-29 276 -54 281 -61 21 -34 109 -22 860 113 410 74 1067 192 1460 263 393 70
717 129 719 130 5 4 -68 1697 -74 1702 -2 3 -37 12 -77 21 l-73 17 170 28 c94
15 180 30 193 33 36 8 25 22 -13 16 l-35 -6 -1 64 c0 35 -2 96 -4 134 -7 111
-24 488 -41 890 -8 204 -19 419 -22 480 l-7 109 -95 23 c-52 13 -142 34 -200
47 -58 14 -181 43 -275 64 -283 66 -461 108 -650 151 -335 78 -910 212 -970
226 -33 8 -159 37 -280 65 -121 28 -265 62 -320 75 -55 13 -172 40 -260 60
-401 93 -668 155 -687 161 -14 4 -17 -5 -22 -58z m113 -4 c2 -2 -2 -151 -8
-331 -10 -303 -13 -655 -4 -555 2 23 9 42 15 42 6 0 8 -28 5 -82 -4 -62 -4
-70 2 -32 5 27 14 216 20 420 6 203 14 392 17 420 5 48 6 50 33 46 16 -2 41 4
60 16 23 14 41 18 59 13 l27 -8 -3 -225 c-4 -217 -3 -226 16 -240 12 -8 23
-29 25 -48 2 -19 3 -9 1 23 -2 32 -1 139 3 238 l6 179 31 0 c17 1 42 7 56 15
14 8 40 14 59 15 l34 0 -5 -231 -6 -231 34 -14 c39 -16 68 -18 59 -4 -4 6 -11
7 -17 4 -27 -17 -33 26 -30 210 l3 188 22 -6 c14 -3 36 3 55 14 38 23 61 25
86 7 17 -13 18 -27 10 -235 -8 -195 -7 -240 11 -381 11 -88 22 -162 25 -164 3
-3 4 146 3 331 -2 258 0 338 10 344 6 4 7 8 2 8 -6 0 -11 8 -11 18 0 14 7 17
27 14 15 -2 38 3 51 12 32 22 88 21 89 -1 0 -10 0 -162 0 -338 0 -176 2 -315
4 -310 16 38 36 249 38 400 l2 179 30 6 c17 4 42 14 56 24 20 13 32 14 53 7
l26 -11 0 -214 c0 -203 1 -216 19 -226 27 -14 36 -13 21 4 -8 11 -11 66 -9
196 3 179 3 181 24 178 12 -1 38 6 58 17 30 16 40 17 62 7 l26 -12 -3 -210
c-3 -201 -2 -209 17 -216 36 -12 55 -12 55 1 0 8 -8 11 -20 8 -20 -5 -20 -2
-18 178 2 116 7 183 13 182 6 -1 13 -19 16 -40 l6 -38 2 37 c1 30 7 39 36 57
27 16 41 18 60 11 l25 -10 0 -204 c0 -200 0 -205 22 -220 12 -9 29 -16 38 -15
9 0 7 4 -8 11 -23 11 -23 13 -21 180 1 92 5 165 10 163 4 -3 10 -1 13 4 4 5
-1 12 -9 14 -10 3 -10 4 2 3 10 -2 33 6 50 16 23 14 42 18 62 13 l29 -6 2
-201 c1 -197 0 -200 -20 -195 -11 3 -18 1 -14 -4 3 -5 11 -9 18 -9 13 0 38
-25 69 -70 9 -13 17 -20 17 -15 0 6 -9 21 -20 35 -18 23 -20 42 -20 213 0 118
4 187 10 187 6 0 11 -1 11 -2 1 -2 5 -79 9 -173 l6 -170 2 170 2 171 29 17
c31 18 56 23 47 8 -4 -5 2 -7 12 -4 18 4 19 -11 25 -313 4 -174 7 -424 7 -554
0 -427 12 -870 24 -870 8 0 9 127 3 447 -9 503 -6 575 23 651 11 30 16 51 11
48 -5 -4 -12 -20 -16 -36 -4 -16 -10 -32 -13 -34 -4 -2 -9 133 -10 301 -3 229
-1 303 8 298 6 -4 9 -13 6 -21 -3 -8 -1 -14 4 -14 5 0 11 -35 13 -77 3 -76 3
-75 4 16 0 93 0 93 30 112 24 15 36 17 57 9 l26 -10 1 -197 c2 -233 3 -222
-23 -245 -12 -10 -16 -18 -11 -18 6 0 16 7 23 15 7 8 27 17 46 21 23 4 34 12
33 23 0 10 -2 11 -6 4 -8 -20 -42 -16 -38 5 2 9 5 91 6 182 2 142 4 153 9 80
l6 -85 2 80 3 80 38 18 c20 9 41 17 44 17 4 0 7 -8 7 -17 0 -15 2 -16 10 -3 5
8 11 12 13 10 3 -3 6 -83 8 -177 3 -106 8 -173 14 -174 6 0 -3 -7 -20 -14 -18
-9 -23 -14 -13 -15 9 0 32 -9 50 -20 33 -19 34 -19 35 -1 1 14 -3 17 -18 14
-25 -7 -25 14 1 22 18 6 20 14 18 98 l-2 92 -5 -89 c-4 -60 -10 -91 -19 -94
-10 -3 -12 28 -10 145 2 81 6 147 11 145 4 -1 22 5 40 15 39 21 64 24 76 9 4
-6 11 -98 14 -203 5 -193 5 -193 -16 -194 -21 -2 -21 -2 1 -6 12 -2 22 -10 20
-16 -3 -16 20 -84 44 -127 17 -32 19 -33 16 -9 -2 15 -10 35 -18 44 -12 15
-15 62 -17 239 -1 122 0 216 3 210 3 -6 8 -63 13 -125 l8 -114 2 123 1 122 34
17 c19 9 41 13 49 10 22 -8 24 -39 42 -1002 3 -143 8 -345 11 -449 5 -155 3
-187 -8 -184 -9 3 -15 35 -19 109 l-6 104 1 -118 1 -119 -65 7 c-36 4 -99 10
-140 14 -57 4 -75 10 -76 21 -1 8 -2 76 -2 151 -2 104 -5 138 -15 142 -11 4
-13 -23 -9 -150 l4 -156 -53 6 c-30 4 -70 7 -89 8 -19 0 -30 2 -25 5 15 6 7
335 -8 351 -9 9 -11 -31 -9 -169 l3 -181 -73 6 c-194 17 -233 19 -228 14 3 -3
32 -8 65 -11 33 -3 76 -8 95 -12 19 -3 109 -16 200 -29 100 -13 153 -24 135
-27 -21 -4 -14 -5 22 -7 54 -1 64 -13 33 -38 -24 -20 -57 -16 -318 36 -136 28
-258 52 -272 54 -14 3 -38 8 -55 11 l-30 6 30 -11 c34 -14 47 -28 40 -46 -7
-20 5 -43 23 -43 8 0 13 -2 11 -5 -5 -4 -169 26 -598 110 -129 25 -235 44
-236 43 -2 -2 -7 -199 -12 -438 -4 -239 -9 -412 -11 -385 -2 28 -6 53 -10 57
-4 3 -27 8 -52 9 -29 2 -47 9 -52 19 -4 8 -7 -5 -7 -30 -1 -39 -4 -46 -21 -46
-11 0 -20 4 -20 8 0 4 7 8 15 8 10 0 15 10 15 34 0 18 2 49 5 67 4 29 3 30 -4
9 -5 -14 -9 -42 -10 -62 -1 -21 -6 -38 -12 -38 -9 0 -10 124 -4 472 7 432 6
471 -9 465 -14 -6 -16 11 -17 161 0 92 -6 212 -13 267 l-12 100 -7 -270 c-5
-154 -12 -271 -18 -273 -5 -2 -9 -10 -9 -17 0 -23 -48 -23 -268 1 -119 13
-236 24 -260 24 -24 0 -41 3 -39 8 3 4 -41 8 -97 10 -55 2 -105 8 -111 14 -7
7 -3 8 12 4 12 -4 24 -2 28 4 3 5 1 10 -4 10 -6 0 -11 5 -11 11 0 5 5 7 10 4
6 -3 10 -1 10 4 0 6 -4 11 -10 11 -5 0 -10 7 -10 16 0 8 -4 12 -10 9 -6 -4 -6
4 1 22 6 15 8 44 5 63 -4 26 -3 30 4 15 6 -14 7 -7 3 24 -5 34 -3 42 6 36 10
-6 11 -3 1 15 -8 15 -13 87 -15 209 -1 102 1 178 4 167 4 -10 5 24 3 75 -2 52
3 355 12 673 15 523 19 581 34 592 14 10 67 9 81 -2z m2682 -649 c4 -16 7
-102 8 -191 l1 -161 25 -11 c14 -7 27 -12 29 -12 1 0 3 24 3 53 0 46 0 47 -4
10 -3 -29 -9 -43 -19 -43 -12 0 -14 28 -13 168 1 159 2 165 14 117 l14 -50 -2
47 c-2 43 0 48 29 62 18 8 41 12 53 9 18 -4 21 -13 21 -53 0 -26 3 -108 7
-184 6 -131 5 -136 -13 -130 -10 3 -1 -5 21 -19 40 -26 64 -28 30 -3 -15 11
-18 25 -16 87 1 41 6 110 12 154 11 87 30 114 80 115 25 0 27 -3 33 -67 8 -91
10 -343 2 -350 -3 -4 -6 -1 -6 5 0 7 -5 12 -10 12 -6 0 -1 -12 10 -27 11 -16
23 -50 26 -78 4 -27 10 -54 13 -60 13 -19 -4 -242 -20 -261 -10 -13 -10 -16
-1 -10 11 6 13 -13 12 -100 -1 -104 18 -222 47 -294 13 -32 16 149 3 200 -6
25 -8 5 -6 -65 3 -98 3 -99 -9 -48 -17 69 -15 295 3 301 15 5 16 32 1 52 -8
12 -9 9 -5 -11 4 -18 0 -31 -11 -40 -15 -12 -16 -12 -9 6 4 11 8 65 8 120 l1
100 8 -74 c5 -41 12 -77 15 -80 3 -3 4 17 0 44 -3 28 -7 78 -8 111 -2 44 -7
60 -15 57 -8 -3 -13 3 -12 18 0 13 -2 67 -5 119 -13 208 -15 340 -7 340 4 0
13 -37 19 -82 l10 -83 -1 92 c-2 89 -1 92 24 107 14 8 35 13 46 10 18 -5 21
-16 27 -96 3 -50 6 -132 6 -183 0 -96 8 -116 45 -114 11 0 15 3 8 5 -6 3 -10
19 -9 37 2 18 1 23 -1 12 -12 -54 -21 -25 -26 92 -7 144 -5 189 6 185 4 -1 20
4 37 13 42 22 69 19 74 -7 3 -13 7 -94 10 -181 4 -137 3 -157 -10 -146 -8 6
-14 8 -14 3 0 -10 56 -44 70 -44 5 0 7 7 4 15 -4 8 -10 13 -14 10 -13 -8 -20
52 -20 168 0 109 0 110 30 138 33 32 48 35 72 17 13 -11 17 -43 22 -175 4
-125 3 -163 -7 -163 -7 0 2 -9 18 -20 36 -24 42 -25 42 -6 0 8 -6 12 -14 9
-16 -6 -17 9 -2 24 6 6 9 23 6 39 -4 28 -4 28 -6 -4 0 -19 -5 -31 -11 -27 -6
4 -10 50 -9 108 1 67 4 93 9 77 6 -19 8 -12 9 31 1 49 4 59 27 74 15 10 35 14
49 11 21 -5 22 -11 24 -88 2 -73 19 -488 51 -1203 9 -192 8 -211 -7 -223 -9
-6 -28 -10 -43 -8 -14 2 -34 5 -45 6 -15 1 -17 3 -5 8 13 6 14 25 9 117 -4 97
-5 102 -8 40 -4 -90 -20 -145 -19 -65 0 30 -5 152 -11 270 -6 118 -13 280 -16
360 -13 310 -11 300 -43 300 -15 0 -15 -1 0 -12 17 -13 21 -82 43 -698 3 -80
8 -180 11 -222 4 -53 3 -78 -5 -78 -6 0 -8 7 -5 15 4 8 1 15 -5 15 -18 0 -12
-38 7 -43 9 -3 -14 -3 -53 0 -68 6 -101 13 -57 13 20 0 22 5 21 68 0 37 -4 87
-9 112 -7 35 -8 27 -4 -35 4 -54 2 -77 -4 -70 -6 6 -12 53 -14 105 -2 69 -7
98 -18 107 -22 18 -36 15 -36 -8 0 -18 2 -18 12 -5 9 13 12 9 17 -26 8 -60 7
-259 -1 -254 -4 2 -65 9 -137 15 -161 15 -176 17 -169 35 3 8 1 17 -5 21 -7 3
-11 -2 -11 -14 0 -15 -6 -21 -22 -21 -13 0 -28 4 -34 8 -8 4 -14 71 -19 186
-7 168 -20 237 -40 218 -5 -4 -6 0 -2 9 6 18 -26 156 -39 167 -4 4 -4 -2 1
-13 18 -47 34 -547 16 -530 -5 6 -11 28 -14 50 -3 32 -4 29 -5 -17 l-2 -58 42
0 c23 0 39 -3 35 -6 -3 -3 -37 -3 -75 1 l-70 7 -5 146 c-3 81 -5 223 -6 315 0
104 -4 166 -10 163 -10 -7 -8 -328 3 -406 4 -25 3 -74 -2 -110 l-8 -65 -7 95
c-8 120 -17 559 -10 543 2 -7 12 -13 20 -13 21 0 0 26 -28 33 -20 5 -20 2 -13
-334 6 -263 4 -339 -5 -339 -7 0 -9 5 -6 10 3 6 1 10 -4 10 -22 0 -10 -30 12
-31 12 0 16 -3 9 -6 -7 -3 -33 -2 -58 2 l-44 6 -1 102 c0 56 -4 120 -8 142 -7
32 -9 19 -10 -62 0 -56 -5 -105 -11 -108 -6 -4 -10 35 -10 109 0 98 2 115 15
110 8 -4 15 -1 15 5 0 6 -8 11 -19 11 -20 0 -19 -20 -37 699 l-7 253 22 -7
c19 -6 21 -3 20 27 -1 23 -3 26 -6 11 -2 -13 -10 -23 -17 -23 -10 0 -14 36
-15 157 -2 152 6 192 20 95 l6 -47 2 61 c1 52 5 64 24 78 35 25 71 17 78 -19z
m-2258 -1518 c-2 -39 -5 -80 -7 -89 -3 -14 2 -18 25 -18 28 0 29 -1 29 -50 0
-48 -1 -50 -27 -50 -26 0 -28 -3 -28 -37 0 -129 -16 -923 -22 -1045 l-6 -148
27 0 c21 0 26 -5 26 -25 0 -20 -5 -25 -25 -25 -25 0 -25 -1 -25 -88 0 -49 -3
-204 -7 -345 l-6 -257 26 0 c26 0 27 -2 27 -55 0 -51 -2 -55 -24 -55 -31 0
-33 -8 -33 -110 0 -65 -3 -86 -14 -88 -12 -2 -14 24 -12 150 1 84 5 195 9 246
6 89 5 92 -15 92 -17 0 -21 6 -21 30 0 29 -1 30 -50 30 -41 0 -50 3 -50 18 0
13 -2 14 -9 4 -6 -10 -21 -12 -55 -7 -58 9 -60 25 -3 26 51 1 86 12 69 23 -13
8 -7 26 9 26 5 0 9 -12 9 -26 0 -26 1 -26 55 -22 30 3 58 7 61 10 3 3 7 111 9
240 2 128 8 481 14 783 5 303 10 622 10 710 1 129 4 212 10 232 1 1 7 0 14 -2
8 -4 11 -27 10 -78z m537 -159 c0 -259 -13 -648 -21 -608 -4 21 -7 26 -8 13 0
-12 -5 -25 -11 -28 -7 -4 -10 130 -10 394 l0 401 25 0 25 0 0 -172z m-880 77
c-5 -83 -4 -85 18 -85 20 0 22 -5 22 -50 0 -46 -2 -50 -23 -50 -22 0 -24 -4
-25 -57 -1 -32 -6 -240 -12 -463 -5 -223 -12 -460 -15 -527 l-5 -123 25 0 c18
0 25 -5 25 -20 0 -15 -7 -20 -25 -20 -24 0 -25 -2 -25 -72 0 -40 -3 -157 -7
-259 l-6 -186 24 -6 c20 -6 21 -9 9 -17 -24 -15 1 -31 64 -37 52 -5 56 -4 56
16 0 11 4 21 9 21 11 0 23 -29 16 -40 -3 -5 10 -12 30 -16 19 -3 38 -11 42
-17 4 -7 -30 -9 -108 -5 -63 3 -122 3 -131 1 -26 -6 -18 -43 9 -43 21 0 23 -5
23 -50 0 -46 -2 -50 -24 -50 -22 0 -24 -4 -24 -52 -1 -127 -2 -138 -14 -138
-14 0 -17 209 -4 350 3 41 8 206 11 365 2 160 9 454 15 655 5 201 13 514 16
695 7 397 5 365 24 365 13 0 14 -13 10 -85z m929 66 c13 -8 14 -54 13 -282 -2
-150 -5 -276 -8 -281 -3 -4 23 -8 58 -8 55 1 61 2 46 14 -16 12 -18 36 -18
257 0 134 3 254 6 267 4 13 14 22 25 22 18 0 19 -13 19 -285 0 -183 4 -285 10
-285 6 0 10 98 10 275 0 268 0 275 20 275 20 0 20 -7 20 -276 0 -241 -2 -275
-15 -270 -8 3 -15 1 -15 -3 0 -5 39 -12 88 -15 48 -4 120 -9 160 -12 l72 -6 0
-41 c0 -23 3 -71 5 -106 l4 -64 -157 7 c-86 4 -165 9 -174 12 -17 5 -18 -6
-18 -134 l0 -140 165 -7 165 -7 0 -104 0 -104 -165 0 -165 0 0 -176 0 -176
175 7 175 7 0 -105 0 -106 -42 -5 c-24 -3 -113 -11 -198 -17 -85 -6 -179 -13
-207 -16 l-53 -5 -1 654 c-1 561 -3 640 -14 563 -11 -82 -12 -54 -14 298 0
213 2 387 7 387 4 0 13 -4 21 -9z m-1093 -96 c-5 -85 -5 -85 20 -85 22 0 24
-4 24 -45 0 -39 -3 -45 -25 -51 -20 -5 -25 -12 -25 -38 0 -17 -7 -229 -15
-471 -8 -242 -15 -484 -15 -537 0 -91 1 -98 20 -98 13 0 20 -7 20 -20 0 -15
-7 -20 -25 -20 l-25 0 0 -117 c0 -65 -3 -209 -7 -320 l-6 -203 21 0 c20 0 22
-5 22 -51 0 -46 -2 -51 -20 -46 -16 4 -21 -1 -26 -28 -3 -18 -5 -41 -4 -51 6
-51 -1 -104 -13 -104 -9 0 -12 29 -10 123 2 67 5 139 7 160 3 26 0 37 -9 37
-7 0 -15 4 -17 9 -1 5 -28 12 -58 15 -30 4 -73 12 -95 18 -39 12 -40 12 -10
15 61 7 75 13 75 34 0 12 4 17 11 13 6 -3 9 -15 6 -25 -4 -16 1 -19 34 -19 33
0 39 3 39 21 0 14 5 19 14 16 15 -6 20 72 31 493 3 107 9 362 15 565 8 307 12
488 19 868 1 18 6 27 17 27 13 0 14 -12 10 -85z m1412 -218 c2 -262 2 -267
-18 -267 -20 0 -20 6 -20 271 0 252 1 270 18 267 16 -3 17 -25 20 -271z
m-1713 211 c3 -18 6 -55 7 -83 3 -41 6 -49 21 -47 14 2 17 -5 17 -43 0 -38 -3
-45 -20 -45 -12 0 -21 -8 -24 -22 -5 -24 -37 -909 -36 -1010 0 -51 2 -58 20
-58 13 0 20 -7 20 -20 0 -15 -7 -20 -25 -20 l-25 0 0 -147 c-1 -82 -5 -168 -9
-192 -10 -48 0 -97 18 -93 6 1 11 -5 11 -14 0 -10 -6 -14 -14 -11 -12 5 -15
-10 -18 -74 -3 -77 -2 -79 20 -79 22 0 23 -3 20 -47 -3 -43 -6 -48 -26 -46
-20 3 -22 -2 -23 -55 -1 -31 0 -72 1 -89 1 -24 -3 -33 -14 -33 -13 0 -15 11
-11 68 5 73 22 520 30 782 2 91 9 309 15 485 20 595 27 830 26 878 -1 54 10
63 19 15z m1884 -193 c-1 -115 -4 -200 -6 -187 -4 22 -5 23 -18 5 -12 -16 -14
10 -15 189 0 201 1 207 20 205 19 -1 20 -8 19 -212z m1381 175 c96 -6 179 -15
184 -20 4 -5 22 -6 40 -4 17 3 90 -2 161 -11 72 -10 167 -19 213 -22 46 -2
105 -10 132 -17 35 -9 51 -10 54 -2 2 6 5 2 5 -9 1 -17 3 -17 11 -5 5 8 10 11
11 5 0 -5 2 -18 4 -27 2 -10 -1 -18 -6 -18 -17 0 -9 -38 9 -43 13 -4 11 -5 -5
-6 -20 -1 -23 4 -24 37 -1 33 -2 34 -9 12 -4 -14 -8 -19 -9 -11 -1 9 -5 10
-13 3 -9 -7 -40 -7 -93 -1 -191 22 -375 38 -435 40 -51 1 -60 3 -40 10 l25 9
-27 -4 c-15 -1 -78 1 -140 5 -62 5 -145 10 -184 11 -51 2 -75 8 -88 21 -10 9
-22 17 -27 17 -5 0 -21 10 -35 23 l-26 22 34 5 c18 3 49 3 68 -1 19 -4 114
-12 210 -19z m-811 -227 c-1 -116 -3 -149 -10 -125 -5 17 -12 32 -14 32 -3 0
-11 -15 -19 -32 -13 -31 -14 -24 -15 100 -1 130 -1 132 22 133 21 1 21 1 -3 9
-24 8 -24 8 -2 9 24 1 30 16 10 24 -7 3 -3 6 10 6 22 1 22 1 21 -156z m134 15
c4 -62 6 -144 6 -183 l-1 -70 -11 45 -11 45 -7 -35 c-4 -22 -7 -28 -9 -15 -2
11 -6 2 -10 -20 -5 -30 -8 -14 -9 61 0 55 -4 142 -7 192 l-7 92 30 0 30 0 6
-112z m126 -63 c0 -115 -4 -157 -14 -165 -10 -9 -14 -6 -18 12 -4 20 -5 19 -8
-7 -2 -16 -6 44 -9 135 -3 91 -4 168 -2 173 2 4 14 7 28 7 l25 0 -2 -155z
m-2948 -15 c11 0 12 -141 2 -322 l-6 -128 -27 0 -28 0 4 83 c2 45 7 149 10
230 5 125 8 147 21 143 8 -3 19 -6 24 -6z m2314 -300 c12 -41 38 -107 57 -145
20 -39 42 -91 49 -115 11 -42 13 -43 20 -20 4 14 7 52 8 85 1 58 25 161 51
218 15 30 25 32 80 16 35 -11 37 -14 30 -38 -4 -14 -10 -62 -14 -106 -10 -102
-28 -167 -79 -272 -55 -116 -55 -146 6 -265 57 -113 64 -135 82 -263 8 -55 20
-119 27 -142 6 -23 10 -44 7 -47 -2 -2 -24 -7 -49 -11 l-45 -7 -24 49 c-34 68
-60 157 -66 228 -3 33 -8 76 -11 95 l-6 35 -17 -55 c-10 -31 -32 -82 -49 -115
-33 -62 -72 -186 -72 -229 0 -23 -3 -25 -75 -28 l-76 -3 6 30 c4 17 28 77 55
135 56 118 76 185 85 280 3 36 13 95 22 131 15 61 15 70 -1 127 -9 33 -19 91
-22 129 -8 90 -43 200 -93 294 -23 42 -41 80 -41 83 0 4 30 6 66 4 l67 -3 22
-75z m565 4 c93 -17 120 -36 120 -84 0 -16 7 -59 16 -97 25 -109 8 -427 -25
-458 -11 -9 -54 -20 -105 -27 l-86 -12 0 -208 0 -208 -34 0 -34 0 -6 103 c-3
56 -8 307 -11 559 l-5 456 43 -5 c23 -2 80 -11 127 -19z m445 -36 c14 -6 25
-20 25 -30 0 -11 20 -45 44 -76 24 -32 46 -66 50 -76 24 -69 38 -579 18 -651
-6 -22 -30 -64 -52 -94 -22 -29 -40 -61 -40 -71 0 -42 -84 -41 -149 3 -84 54
-83 52 -110 412 -10 126 2 418 20 488 7 28 21 44 52 65 23 15 44 30 45 35 5
11 68 8 97 -5z m335 -54 c36 -8 72 -19 80 -24 10 -6 17 -35 22 -92 10 -126 9
-347 -2 -368 -5 -10 -21 -21 -36 -24 l-27 -7 22 -15 c36 -26 53 -73 61 -175 6
-72 15 -112 34 -154 14 -32 26 -59 26 -61 0 -2 -15 -4 -32 -4 -31 0 -35 4 -77
90 -36 75 -44 103 -48 163 -4 72 -19 127 -33 127 -4 0 -22 3 -40 7 l-33 6 7
-206 7 -207 -30 0 c-29 0 -29 0 -35 73 -5 67 -26 760 -26 856 l0 43 48 -7 c26
-3 76 -13 112 -21z m298 -30 l72 -7 0 -57 c0 -32 3 -65 6 -74 5 -14 -1 -15
-41 -9 l-48 6 6 -119 c4 -65 9 -202 12 -304 3 -102 8 -213 11 -246 4 -52 3
-62 -12 -68 -9 -4 -18 -5 -20 -3 -2 2 -8 136 -14 298 -6 162 -13 326 -16 365
l-5 72 -41 5 c-22 3 -41 7 -43 9 -1 1 -5 36 -7 77 l-5 73 36 -5 c20 -3 69 -9
109 -13z"/>
<path d="M3915 4229 c7 -301 6 -318 -12 -329 -16 -10 -16 -11 0 -6 9 3 17 1
17 -4 0 -6 6 -10 13 -10 10 0 13 21 12 88 -7 382 -6 517 4 520 6 2 8 -3 5 -11
-3 -8 -1 -18 5 -21 23 -14 5 36 -22 62 l-29 27 7 -316z"/>
<path d="M3188 3847 c2 -199 6 -364 8 -366 2 -2 6 -2 9 0 2 3 5 164 5 359 1
290 -1 355 -13 361 -11 7 -13 -49 -9 -354z"/>
<path d="M3380 3830 c0 -338 1 -370 17 -370 14 0 15 14 10 137 -4 75 -7 241
-7 370 0 149 -4 233 -10 233 -6 0 -10 -130 -10 -370z"/>
<path d="M2587 4038 c-11 -78 -17 -184 -17 -290 0 -161 1 -168 20 -168 20 0
20 7 20 290 0 160 -1 290 -3 290 -1 0 -10 -55 -20 -122z"/>
<path d="M4136 3833 c-4 -10 -14 -31 -23 -48 -13 -24 -16 -63 -17 -212 l-1
-183 33 0 32 0 0 180 c0 99 -4 180 -8 180 -4 0 -13 -5 -20 -12 -10 -10 -12 -4
-10 25 2 20 8 35 13 33 6 -2 11 9 12 25 2 33 -2 37 -11 12z"/>
<path d="M4852 4347 c12 -13 17 -45 22 -149 18 -431 30 -884 23 -877 -4 3 -11
23 -16 45 l-9 39 -1 -47 -1 -48 43 0 42 0 -3 126 c-2 69 -5 124 -7 122 -3 -3
-7 -46 -10 -98 -7 -140 -18 -124 -13 20 2 69 1 114 -3 100 -4 -14 -8 29 -8
100 -1 123 -6 252 -19 503 -6 99 -4 127 5 127 22 0 14 16 -14 31 -46 22 -48
23 -31 6z"/>
<path d="M4710 3618 c0 -4 6 -8 13 -8 14 0 27 -119 27 -242 0 -45 2 -48 25
-48 l26 0 -2 143 -1 143 -44 10 c-24 6 -44 7 -44 2z"/>
<path d="M3880 2385 l0 -155 43 0 c54 0 86 17 114 59 31 46 32 132 1 176 -31
46 -78 75 -121 75 l-37 0 0 -155z"/>
<path d="M4332 2501 c-3 -9 -14 -38 -25 -66 -35 -90 -47 -149 -47 -236 0 -113
11 -169 57 -278 38 -91 38 -91 74 -91 48 0 64 21 65 84 0 28 4 96 8 151 5 63
4 137 -4 200 -6 55 -14 125 -17 155 -3 30 -12 62 -20 71 -20 24 -83 30 -91 10z"/>
<path d="M4660 2360 l0 -120 53 0 c40 0 58 5 71 19 25 27 35 73 26 121 -11 58
-44 89 -103 95 l-47 5 0 -120z"/>
<path d="M1183 5095 c-8 -9 -17 -133 -27 -401 -20 -510 -21 -540 -11 -536 4 2
11 -1 15 -8 4 -6 7 15 7 47 1 32 8 249 17 482 9 233 15 425 14 426 -2 2 -8 -3
-15 -10z"/>
<path d="M1126 3890 c-4 -129 -8 -260 -10 -290 -2 -30 -1 -44 1 -30 3 14 9 30
15 37 9 11 24 229 30 435 3 75 1 86 -13 85 -15 -1 -18 -28 -23 -237z"/>
</g>
</svg>
